<?xml version="1.0" encoding="UTF-8"?>
<!DOCTYPE svg PUBLIC "-//W3C//DTD SVG 1.1//EN" "http://www.w3.org/Graphics/SVG/1.1/DTD/svg11.dtd">
<!-- Creator: CorelDRAW 2019 (64-Bit) -->
<svg xmlns="http://www.w3.org/2000/svg" xml:space="preserve" width="2.44026in" height="2.44026in" version="1.1" style="shape-rendering:geometricPrecision; text-rendering:geometricPrecision; image-rendering:optimizeQuality; fill-rule:evenodd; clip-rule:evenodd"
viewBox="0 0 97.67 97.67"
 xmlns:xlink="http://www.w3.org/1999/xlink">
 <defs>
  <style type="text/css">
   <![CDATA[
    .str0 {stroke:#0066FF;stroke-width:4.45;stroke-miterlimit:2.61313}
    .fil0 {fill:none}
    .fil1 {fill:#0066FF}
   ]]>
  </style>
 </defs>
 <g id="Layer_x0020_1">
  <metadata id="CorelCorpID_0Corel-Layer"/>
  <g id="_2051024647408">
   <circle class="fil0 str0" cx="48.84" cy="48.84" r="46.61"/>
   <g>
    <path class="fil1" d="M32.46 67.08l3.7 -10.86 -1.26 -1.13c-0.29,-0.27 -0.22,-0.15 -0.47,-0.47 -0.49,-0.64 -0.93,-1.24 -1.41,-1.93 -0.86,-1.27 -1.67,-3.02 -2.09,-4.72 -2.72,-11.1 5.29,-21.82 17.18,-22.38l0.07 -10.83c-7.14,0.32 -12.93,2.69 -17.2,6.12 -4.36,3.51 -7.88,8.04 -9.8,13.67 -2.24,6.57 -1.95,13.44 0.57,19.67 1.82,4.51 5.2,8.85 8.92,11.62 0.41,0.3 1.37,1.08 1.79,1.23z"/>
    <path class="fil1" d="M33.71 68.13c1.15,0.38 5.04,3.42 6.32,4.5 1.05,0.88 2.92,2.92 3.76,4.11 0.45,0.63 1.94,3.09 2.18,3.96 -0.04,-2.77 -2.29,-7.2 -3.86,-9.35 -0.74,-1.01 -3.07,-3.77 -3.98,-4.15 0.14,-1.08 0.83,-2.72 1.2,-3.81 1.35,-4.07 8.51,-26 8.84,-26.32l0.09 23.53c-1.29,0.5 -2.33,1.07 -2.34,2.83 -0.01,2.04 1.81,2.42 2.31,2.8 0.09,2.07 -0.22,16.31 0.23,16.64 1.47,0.38 1,-2.12 1,-3.3 -0.01,-1.47 -0.01,-2.94 -0.01,-4.4 -0.01,-2.85 -0.17,-6.14 -0.01,-8.94 0.03,-0.02 0.08,-0.09 0.1,-0.06 0.02,0.03 0.07,-0.04 0.1,-0.06 0.51,-0.27 1.06,-0.47 1.4,-0.89 0.28,-0.35 0.7,-1.14 0.72,-1.82 0.03,-1.47 -1.09,-2.48 -2.31,-2.71l0.01 -23.62c0.46,0.49 1.18,3.08 1.37,3.69 0.96,3.02 8.54,25.32 8.67,26.4 -0.31,0.37 -0.31,0.32 -0.62,0.56l-1.99 2.01c-0.95,1.24 -1.36,1.55 -2.25,3.09 -1.05,1.82 -2.82,5.18 -2.88,7.7 0.41,-0.57 1.01,-2.27 2.21,-3.95 0.48,-0.67 0.91,-1.09 1.39,-1.68 1.24,-1.55 3.21,-3.1 4.87,-4.34 1.05,-0.79 2.81,-1.76 3.68,-2.58l-13.52 -39.95 -3.07 0c-0.57,1.16 -1.28,3.67 -1.68,4.98 -1.39,4.52 -3.53,10.46 -5.09,15.05l-5.11 14.91c-0.47,1.45 -1.51,3.78 -1.72,5.18z"/>
    <path class="fil1" d="M67.3 42.83l10.64 0.02c0.42,-3.18 -1.52,-8.97 -2.72,-11.42 -1.92,-3.95 -4.08,-6.54 -6.76,-9.11l-2.99 -2.35c-1.39,-0.91 -2.81,-1.87 -4.48,-2.59 -2.61,-1.13 -8.17,-2.9 -11.41,-2.58 -0.14,1.27 0,7.62 -0.02,9.94 -0.01,0.68 -0.13,0.77 0.47,0.88 3.48,0.6 5.44,0.72 8.73,2.78 4.19,2.63 8.07,7.29 8.53,14.43z"/>
    <path class="fil1" d="M61.54 56.21l3.71 10.9c0.96,-0.55 4.18,-3.22 4.87,-4.01 1.33,-1.52 2.66,-3.02 3.88,-5.06 2.01,-3.35 4.31,-8.92 3.96,-13.73l-10.64 -0.03c-0.58,2.98 -0.16,3.59 -1.84,6.99 -1.02,2.06 -2.45,3.82 -3.96,4.95z"/>
   </g>
  </g>
 </g>
</svg>
